<svg width="92" height="30" viewBox="0 0 92 30" fill="none" xmlns="http://www.w3.org/2000/svg">
<path d="M10.16 29.28C8.16 29.28 6.42667 28.8933 4.96 28.12C3.52 27.32 2.38667 26.28 1.56 25C0.733333 23.72 0.226667 22.3333 0.0400001 20.84H5.64C5.90667 22.0133 6.44 22.8933 7.24 23.48C8.06667 24.0667 9.01333 24.36 10.08 24.36C11.52 24.36 12.64 23.8933 13.44 22.96C14.24 22 14.64 20.7733 14.64 19.28C14.64 17.76 14.2267 16.5333 13.4 15.6C12.6 14.6667 11.4667 14.2 10 14.2C8.02667 14.2 6.64 15.1067 5.84 16.92L0.36 16.84L1.12 0.999998H18.48V6.04H5.64L5.28 12.92H5.52C5.89333 12.3333 6.54667 11.7467 7.48 11.16C8.41333 10.5733 9.73333 10.28 11.44 10.28C14.1333 10.28 16.2533 11.0933 17.8 12.72C19.3733 14.3467 20.16 16.5333 20.16 19.28C20.16 21.0667 19.7733 22.72 19 24.24C18.2533 25.76 17.1333 26.9867 15.64 27.92C14.1467 28.8267 12.32 29.28 10.16 29.28ZM34.1023 29.56C30.4756 29.56 27.7689 28.3733 25.9823 26C24.2223 23.6267 23.3423 20.4933 23.3423 16.6V13.32C23.3423 9.42667 24.2223 6.30666 25.9823 3.96C27.7689 1.61333 30.4756 0.439998 34.1023 0.439998C37.7556 0.439998 40.4623 1.62667 42.2223 4C44.0089 6.34667 44.9023 9.45333 44.9023 13.32V16.6C44.9023 20.4933 44.0089 23.6267 42.2223 26C40.4356 28.3733 37.7289 29.56 34.1023 29.56ZM34.1023 24.76C35.7023 24.76 36.8623 24.0933 37.5823 22.76C38.3289 21.4 38.7023 19.4133 38.7023 16.8V13.08C38.7023 10.4933 38.3289 8.54667 37.5823 7.24C36.8623 5.90667 35.7023 5.24 34.1023 5.24C32.5289 5.24 31.3689 5.90667 30.6223 7.24C29.9023 8.54667 29.5423 10.4933 29.5423 13.08V16.8C29.5423 19.4133 29.9023 21.4 30.6223 22.76C31.3689 24.0933 32.5289 24.76 34.1023 24.76ZM58.8601 29.56C55.2335 29.56 52.5268 28.3733 50.7401 26C48.9801 23.6267 48.1001 20.4933 48.1001 16.6V13.32C48.1001 9.42667 48.9801 6.30666 50.7401 3.96C52.5268 1.61333 55.2335 0.439998 58.8601 0.439998C62.5135 0.439998 65.2201 1.62667 66.9801 4C68.7668 6.34667 69.6601 9.45333 69.6601 13.32V16.6C69.6601 20.4933 68.7668 23.6267 66.9801 26C65.1935 28.3733 62.4868 29.56 58.8601 29.56ZM58.8601 24.76C60.4601 24.76 61.6201 24.0933 62.3401 22.76C63.0868 21.4 63.4601 19.4133 63.4601 16.8V13.08C63.4601 10.4933 63.0868 8.54667 62.3401 7.24C61.6201 5.90667 60.4601 5.24 58.8601 5.24C57.2868 5.24 56.1268 5.90667 55.3801 7.24C54.6601 8.54667 54.3001 10.4933 54.3001 13.08V16.8C54.3001 19.4133 54.6601 21.4 55.3801 22.76C56.1268 24.0933 57.2868 24.76 58.8601 24.76ZM91.3799 18.88H85.2999V24.96H80.5799V18.88H74.4999V14.16H80.5799V8.08H85.2999V14.16H91.3799V18.88Z" fill="white"/>
</svg>
